<svg xmlns="http://www.w3.org/2000/svg" viewBox="0 0 24 32">
  <g transform="translate(2 2.9091) scale(0.9091)">
    <path d="M19,0h-4s0,0,0,0C13.52,0,12.09.56,11,1.53c-1.09-.97-2.52-1.53-4-1.53H3C1.35,0,0,1.35,0,3v12c0,1.65,1.34,3,3,3h4c1.25,0,2.45.6,3.2,1.6.01.02.03.02.05.04.07.08.14.14.23.19.04.02.06.05.1.07.13.06.27.1.42.1s.29-.04.42-.1c.04-.02.07-.05.1-.07.09-.05.16-.11.23-.19.01-.02.03-.02.05-.04.75-1,1.95-1.6,3.2-1.6h4c1.65,0,3-1.35,3-3V3C22,1.35,20.66,0,19,0ZM7,16H3c-.55,0-1-.45-1-1V3c0-.55.45-1,1-1h4c1.15,0,2.24.53,3,1.39v13.43c-.9-.52-1.94-.82-3-.82ZM20,15c0,.55-.45,1-1,1h-4c-1.06,0-2.1.3-3,.82V3.39c.75-.86,1.84-1.39,3-1.39h4c.55,0,1,.45,1,1v12Z" fill="#e8a027"/>
  </g>
</svg>
